# Blender v2.92.0 OBJ File: 'RGB_NunChucks.blend'
# www.blender.org
o Chuck_v2_chuckv2mesh.001
v 0.005200 -0.012700 0.127400
v -0.005200 -0.012700 0.127400
v 0.005200 -0.012700 0.132400
v 0.012700 -0.005200 0.139782
v 0.012700 0.005200 0.150018
v 0.005200 0.012700 0.157400
v -0.012700 -0.005200 0.139782
v -0.005200 -0.012700 0.132400
v -0.005200 0.012700 0.157400
v -0.012700 0.005200 0.150018
v 0.007700 -0.009575 -0.152400
v 0.007700 0.007700 -0.152400
v -0.007700 -0.009575 -0.152400
v -0.007700 0.007700 -0.152400
v 0.007075 -0.012700 0.129245
v -0.007075 -0.012700 0.129245
v 0.012700 -0.007075 -0.147400
v 0.007075 -0.012700 -0.147400
v 0.008370 -0.010245 -0.151730
v 0.005200 0.012700 -0.147400
v 0.012700 0.005200 -0.147400
v 0.008370 0.008370 -0.151730
v -0.007075 -0.012700 -0.147400
v -0.012700 -0.007075 -0.147400
v -0.008370 -0.010245 -0.151730
v -0.012700 0.005200 -0.147400
v -0.005200 0.012700 -0.147400
v -0.008370 0.008370 -0.151730
v -0.003900 -0.009525 0.130525
v -0.009525 -0.003900 0.136061
v 0.009525 -0.003900 0.136061
v 0.003900 -0.009525 0.130525
v 0.003900 0.009525 0.149275
v 0.009525 0.003900 0.143738
v -0.009525 0.003900 0.143738
v -0.003900 0.009525 0.149275
v -0.003900 -0.009525 -0.147400
v -0.009525 -0.003900 -0.141863
v 0.009525 -0.003900 -0.141863
v 0.003900 -0.009525 -0.147400
v 0.003900 0.009525 -0.128650
v 0.009525 0.003900 -0.134186
v -0.009525 0.003900 -0.134186
v -0.003900 0.009525 -0.128650
vt 0.000000 0.000000
vt 0.000000 0.000000
vt 0.000000 0.000000
vt 0.000000 0.000000
vt 0.000000 0.000000
vt 0.000000 0.000000
vt 0.000000 0.000000
vt 0.000000 0.000000
vt 0.000000 0.000000
vt 0.000000 0.000000
vt 0.674213 0.549213
vt 0.825787 0.549213
vt 0.825787 0.700787
vt 0.674213 0.700787
vt 0.832381 0.707381
vt 0.801181 0.750000
vt 0.698819 0.750000
vt 0.667619 0.707381
vt 0.375000 0.000000
vt 0.667619 0.542619
vt 0.698819 0.500000
vt 0.801181 0.500000
vt 0.832381 0.542619
vt 0.667070 0.707381
vt 0.620899 0.676181
vt 0.620899 0.573819
vt 0.667070 0.542619
vt 0.875000 0.573819
vt 0.875000 0.676181
vt 0.620899 1.000000
vt 0.620899 0.926181
vt 0.620899 0.957381
vt 0.620899 0.250000
vt 0.620899 0.176181
vt 0.620899 0.207381
vt 0.620899 0.713091
vt 0.620899 0.707381
vt 0.620899 0.500000
vt 0.620899 0.426181
vt 0.620899 0.457381
vt 0.000000 0.000000
vt 0.000000 0.000000
vt 0.000000 0.000000
vt 0.000000 0.000000
vt 0.000000 0.000000
vt 0.000000 0.000000
vt 0.000000 0.000000
vt 0.000000 0.000000
vt 0.000000 0.000000
vt 0.000000 0.000000
vt 0.375000 0.073819
vt 0.375000 0.073819
vt 0.375000 0.000000
vt 0.375000 0.000000
vt 0.125000 0.573819
vt 0.198819 0.500000
vt 0.301181 0.500000
vt 0.375000 0.573819
vt 0.375000 0.676181
vt 0.301181 0.750000
vt 0.198819 0.750000
vt 0.125000 0.676181
vt 0.375000 0.573819
vt 0.375000 0.426181
vt 0.375000 0.426181
vt 0.375000 0.676181
vt 0.375000 0.323819
vt 0.375000 0.176181
vt 0.375000 0.176181
vt 0.375000 0.323819
vt 0.375000 0.823819
vt 0.375000 0.823819
vt 0.375000 0.823819
vt 0.620899 0.000000
vt 0.620899 0.323819
vt 0.620899 0.073819
vt 0.620899 0.036909
vt 0.620899 0.823819
vn -0.0000 -0.7015 0.7127
vn -0.0000 -1.0000 0.0000
vn 0.0000 0.0000 -1.0000
vn -0.0000 -0.8472 -0.5312
vn 0.5086 -0.8062 0.3023
vn 0.0000 0.7071 -0.7071
vn -0.7071 0.0000 -0.7071
vn 0.7071 -0.0000 -0.7071
vn 0.6947 -0.6947 -0.1862
vn 0.6947 0.6947 -0.1862
vn -0.6947 -0.6947 -0.1862
vn -0.6947 0.6947 -0.1862
vn -0.5086 -0.8062 0.3023
vn 0.0000 0.7041 -0.7101
vn -0.7071 0.7071 0.0000
vn 0.7071 -0.7071 -0.0000
vn 1.0000 -0.0000 -0.0000
vn -0.7071 -0.7071 0.0000
vn -1.0000 0.0000 0.0000
vn 0.7071 0.7071 -0.0000
vn -0.0000 -0.9998 0.0198
vn -0.7898 -0.0774 0.6084
vn -0.3686 0.3873 0.8451
vn -0.3106 0.8994 -0.3077
vn -0.8994 0.3106 -0.3077
vn 0.3106 0.8994 -0.3077
vn 0.3686 0.3873 0.8451
vn 0.7898 -0.0774 0.6084
vn 0.8994 0.3106 -0.3077
vn -0.7075 -0.5576 0.4341
vn -0.8994 -0.3106 -0.3076
vn 0.7075 -0.5576 0.4341
vn 0.8994 -0.3106 -0.3076
vn 0.3388 -0.9172 -0.2097
vn 0.4354 -0.8956 -0.0911
vn -0.4354 -0.8956 -0.0911
vn -0.3388 -0.9172 -0.2097
s off
f 8/1/1 3/2/1 4/3/1 5/4/1 6/5/1 9/6/1 10/7/1 7/8/1
f 2/9/2 1/10/2 3/2/2 8/1/2
f 14/11/3 12/12/3 11/13/3 13/14/3
f 13/14/4 11/13/4 19/15/4 18/16/4 23/17/4 25/18/4
f 4/3/5 3/2/5 15/19/5
f 12/12/6 14/11/6 28/20/6 27/21/6 20/22/6 22/23/6
f 14/11/7 13/14/7 25/24/7 24/25/7 26/26/7 28/27/7
f 11/13/8 12/12/8 22/23/8 21/28/8 17/29/8 19/15/8
f 17/30/9 18/31/9 19/32/9
f 20/33/10 21/34/10 22/35/10
f 23/36/11 24/25/11 25/37/11
f 26/38/12 27/39/12 28/40/12
f 8/1/13 7/8/13 16/41/13
f 29/42/14 30/43/14 35/44/14 36/45/14 33/46/14 34/47/14 31/48/14 32/49/14 15/50/14 1/10/14 2/9/14 16/41/14
f 31/51/15 39/52/15 40/53/15 32/54/15
f 42/55/1 41/56/1 44/57/1 43/58/1 38/59/1 37/60/1 40/61/1 39/62/1
f 35/63/16 43/58/16 44/64/16 36/65/16
f 30/66/17 38/59/17 43/58/17 35/63/17
f 41/67/18 42/68/18 34/69/18 33/70/18
f 34/69/19 42/68/19 39/52/19 31/51/19
f 37/71/20 38/59/20 30/66/20 29/72/20
f 36/65/2 44/64/2 41/67/2 33/70/2
f 16/73/21 23/17/21 18/74/21 15/19/21 32/54/21 40/61/21 37/71/21 29/72/21
f 3/2/2 1/10/2 15/19/2
f 16/41/2 2/9/2 8/1/2
s 1
f 10/7/22 9/6/23 27/39/24 26/26/25
f 20/75/26 6/5/27 5/4/28 21/34/29
f 7/8/30 10/7/22 26/26/25 24/25/31
f 5/4/28 4/3/32 17/76/33 21/34/29
f 9/6/23 6/5/27 20/75/26 27/39/24
f 18/77/34 17/76/33 15/19/35
f 17/76/33 4/3/32 15/19/35
f 7/8/30 24/25/31 16/41/36
f 24/25/31 23/78/37 16/41/36
